<svg xmlns="http://www.w3.org/2000/svg" xmlns:xlink="http://www.w3.org/1999/xlink" viewBox="0 0 425.2 389.86"><defs><style>.cls-1{mask:url(#mask);}.cls-2,.cls-5{mix-blend-mode:multiply;}.cls-2{fill:url(#linear-gradient);}.cls-3{isolation:isolate;}.cls-4{fill:#77c9d8;}.cls-5{fill:#c6c6c6;}.cls-6{fill:#c5d439;}.cls-7{fill:#2b2631;}.cls-8{mask:url(#mask-2);}.cls-9{mix-blend-mode:overlay;fill:url(#linear-gradient-2);}.cls-10{fill:#1f1b23;}.cls-11{fill:#e30613;}.cls-12{fill:#015047;}.cls-13{fill:#017d68;}.cls-14{fill:#ededed;}.cls-15{fill:#016156;}.cls-16{fill:#016a5d;}.cls-17{filter:url(#luminosity-noclip-2);}.cls-18{filter:url(#luminosity-noclip);}</style><filter id="luminosity-noclip" x="50.66" y="-8387" width="103.92" height="32766" filterUnits="userSpaceOnUse" color-interpolation-filters="sRGB"><feFlood flood-color="#fff" result="bg"/><feBlend in="SourceGraphic" in2="bg"/></filter><mask id="mask" x="50.66" y="-8387" width="103.92" height="32766" maskUnits="userSpaceOnUse"><g class="cls-18"/></mask><linearGradient id="linear-gradient" x1="142.21" y1="203.92" x2="74.1" y2="152.2" gradientUnits="userSpaceOnUse"><stop offset="0" stop-color="#fff"/><stop offset="0.85" stop-color="#262626"/><stop offset="1"/></linearGradient><filter id="luminosity-noclip-2" x="50.66" y="95.59" width="103.92" height="156.52" filterUnits="userSpaceOnUse" color-interpolation-filters="sRGB"><feFlood flood-color="#fff" result="bg"/><feBlend in="SourceGraphic" in2="bg"/></filter><mask id="mask-2" x="50.66" y="95.59" width="103.92" height="156.52" maskUnits="userSpaceOnUse"><g class="cls-17"><g transform="translate(0 0)"><g class="cls-1"><path class="cls-2" d="M60.19,237.82V112.52a7.39,7.39,0,0,1,7.39-7.4h80.15c2-2.72,4-5.43,5.91-8.18l.94-1.35h-87a16.94,16.94,0,0,0-16.92,16.93V252.11C53.89,247.37,57.07,242.63,60.19,237.82Z"/></g></g></g></mask><linearGradient id="linear-gradient-2" x1="142.21" y1="203.92" x2="74.1" y2="152.2" gradientUnits="userSpaceOnUse"><stop offset="0" stop-color="#fff"/><stop offset="1" stop-color="#fff"/></linearGradient></defs><title>icon</title><g class="cls-3"><g id="Capa_1" data-name="Capa 1"><rect class="cls-4" width="425.2" height="389.86"/><path class="cls-5" d="M384.21,359.49c0-7.83-76.83-14.19-171.61-14.19S41,351.66,41,359.49s76.83,14.19,171.61,14.19S384.21,367.33,384.21,359.49Z" transform="translate(0 0)"/><path class="cls-6" d="M67.58,100.36h290a12.17,12.17,0,0,1,12.17,12.17V281.31a12.17,12.17,0,0,1-12.17,12.17h-290a12.16,12.16,0,0,1-12.16-12.16V112.52a12.17,12.17,0,0,1,12.17-12.17Z"/><path class="cls-7" d="M357.61,282.47h-290a7.39,7.39,0,0,1-7.39-7.4V112.52a7.39,7.39,0,0,1,7.39-7.4h290a7.4,7.4,0,0,1,7.4,7.4V275.07a7.4,7.4,0,0,1-7.4,7.4m0,23.34a17,17,0,0,0,16.93-16.93V112.52a16.94,16.94,0,0,0-16.93-16.93h-290a16.94,16.94,0,0,0-16.92,16.93V288.88a17,17,0,0,0,16.92,16.93Z" transform="translate(0 0)"/><g class="cls-8"><path class="cls-9" d="M60.19,237.82V112.52a7.39,7.39,0,0,1,7.39-7.4h80.15c2-2.72,4-5.43,5.91-8.18l.94-1.35h-87a16.94,16.94,0,0,0-16.92,16.93V252.11C53.89,247.37,57.07,242.63,60.19,237.82Z" transform="translate(0 0)"/></g><path class="cls-10" d="M229.84,305.81H195.35c0,33.61-13.45,44.54-13.45,44.54h61.39S229.84,339.42,229.84,305.81Z" transform="translate(0 0)"/><path class="cls-7" d="M263.53,350.35H161.67c-5.52,0-15.3,9.14-12.14,9.14H275.67C278.82,359.49,269,350.35,263.53,350.35Z" transform="translate(0 0)"/><path class="cls-11" d="M355.73,295.06a1.66,1.66,0,1,0-1.65,1.65A1.65,1.65,0,0,0,355.73,295.06Z" transform="translate(0 0)"/><polygon class="cls-12" points="280.61 60.98 79.37 146.84 86.11 162.17 216.99 190.62 287.18 76.38 280.61 60.98"/><polygon class="cls-12" points="280.61 60.98 79.37 146.84 86.11 162.17 210.56 175.56 287.18 76.38 280.61 60.98"/><polygon class="cls-13" points="287.06 76.1 85.82 161.96 79.41 146.48 155.87 47.37 280.49 60.69 287.06 76.1"/><polygon class="cls-14" points="274.61 172.98 221.71 38.85 104.43 85.12 159.1 223.5 274.61 172.98"/><polygon class="cls-15" points="210.56 175.56 86.11 162.17 216.99 190.62 287.18 76.38 210.56 175.56"/><path class="cls-16" d="M200.56,152.12l-74.95,103.1,1.07,2.5a13.4,13.4,0,0,0,17.58,7.07l176.59-75.35a13.4,13.4,0,0,0,7.07-17.58l-1.07-2.5Z" transform="translate(0 0)"/><path class="cls-13" d="M207.1,167.44l-81.49,87.78,1.07,2.5a13.4,13.4,0,0,0,17.58,7.07l176.59-75.35a13.4,13.4,0,0,0,7.07-17.58l-1.07-2.5Z" transform="translate(0 0)"/><polygon class="cls-13" points="326.85 169.36 287.18 76.38 237.54 157.16 326.85 169.36"/><path class="cls-13" d="M86.11,162.17l-.8-1.81a13.39,13.39,0,0,0,.63,1.88l39.67,93,53-72.94Z" transform="translate(0 0)"/><path class="cls-12" d="M210.32,89.34l-.75-.88q-.76-.88-1.59-1.71c-.46-.47-.94-.92-1.43-1.36a32.82,32.82,0,0,0-11.35-6.67,31.4,31.4,0,0,0-12.82-1.62,35.58,35.58,0,0,0-13.21,3.7,34.67,34.67,0,0,0-11.08,8.56A33.75,33.75,0,0,0,151.48,101a35.37,35.37,0,0,0-1.66,13.48c0,.34.06.68.1,1,.07.78.17,1.56.3,2.35.06.38.14.76.21,1.14.15.75.32,1.49.52,2.24a39.13,39.13,0,0,0,1.88,5.31c.27.61.54,1.21.84,1.81a39.72,39.72,0,0,0,8.82,11.93,33.1,33.1,0,0,0,11.55,7A32.43,32.43,0,0,0,187.21,149a36.78,36.78,0,0,0,13.6-3.85,70.36,70.36,0,0,0,7.19-4.07,73.67,73.67,0,0,0,6.22-4.55l-3.53-7.13a55.26,55.26,0,0,1-6.34,5,56.2,56.2,0,0,1-6.82,4.09,27.15,27.15,0,0,1-9.75,2.77A24.3,24.3,0,0,1,178,140.1a26.23,26.23,0,0,1-9.09-5.48,33,33,0,0,1-7.42-10.11c-.29-.61-.56-1.21-.82-1.81a30.17,30.17,0,0,1-1.74-5.39c-.18-.76-.3-1.53-.41-2.29-.05-.4-.1-.79-.14-1.19s0-.59-.07-.89c0-.52-.05-1-.05-1.54a26,26,0,0,1,1.39-9.1,27.29,27.29,0,0,1,4.94-8.63,24.42,24.42,0,0,1,8-6.24,29.08,29.08,0,0,1,9.84-3A22.23,22.23,0,0,1,192,85.56a23.69,23.69,0,0,1,8.21,5l.42.38c.43.4.84.84,1.26,1.28.26.29.52.57.77.87.49.57,1,1.17,1.42,1.8a38.3,38.3,0,0,1,3,4.76c.24.44.47.88.69,1.33a40.1,40.1,0,0,1,2.6,6.85,30.52,30.52,0,0,1,1.15,7.28l-6.25,3.1-7-14.18-2.49-5-1-2-.5-1-1-2-2.87-5.8-8.53,4.23L183,94.75a12.48,12.48,0,0,0-3.85-.46,11,11,0,0,0-4.75,1.23,15.26,15.26,0,0,0-5,4.15,15.78,15.78,0,0,0-3.07,6.1c-.16.6-.28,1.21-.38,1.82a20.57,20.57,0,0,0-.23,2.62c0,.41,0,.83,0,1.26,0,.61.05,1.23.11,1.86,0,.18,0,.36.08.54a23,23,0,0,0,1.49,5.51c.31.79.67,1.6,1.07,2.42q4.16,8.39,10.32,11.49a12.93,12.93,0,0,0,12.16.14,16.79,16.79,0,0,0,5.22-3.62,27.92,27.92,0,0,0,2.94-4.23l2,2.58,18.6-9.22a36.86,36.86,0,0,0-.68-10.63,43.68,43.68,0,0,0-3.71-11.19c-.2-.4-.41-.79-.62-1.18a42.37,42.37,0,0,0-3-4.78C211.25,90.53,210.79,89.92,210.32,89.34Zm-24.27,12,1,2,2.48,5,5.31,10.72a14,14,0,0,1-1.82,3.63,8.1,8.1,0,0,1-3,2.41,6.18,6.18,0,0,1-6.61-.21q-3-2-5.84-7.83c-.39-.79-.73-1.55-1-2.3a17,17,0,0,1-1.28-5.62,12.13,12.13,0,0,1,0-1.48,9.68,9.68,0,0,1,.19-1.12,8,8,0,0,1,.5-1.5,6.71,6.71,0,0,1,3.23-3.16,12,12,0,0,1,3.07-1.09,14.93,14.93,0,0,1,2.81-.26c.18,0,.36,0,.54,0Z" transform="translate(0 0)"/></g></g></svg>